<svg width="40" height="40" viewBox="0 0 40 40" fill="none" xmlns="http://www.w3.org/2000/svg">
<path d="M22.056 0C24.3059 0.0059997 25.4479 0.0179991 26.4338 0.0459977L26.8218 0.0599969C27.2698 0.0759961 27.7117 0.095995 28.2457 0.119994C30.3736 0.219989 31.8255 0.555972 33.0995 1.04995C34.4194 1.55792 35.5313 2.24589 36.6433 3.35583C37.6606 4.35525 38.4476 5.56466 38.9492 6.89965C39.4431 8.17359 39.7791 9.62551 39.8791 11.7554C39.9031 12.2874 39.9231 12.7294 39.9391 13.1793L39.9511 13.5673C39.9811 14.5513 39.9931 15.6932 39.9971 17.9431L39.9991 19.435V22.0549C40.004 23.5136 39.9887 24.9724 39.9531 26.4307L39.9411 26.8186C39.9251 27.2686 39.9051 27.7106 39.8811 28.2426C39.7811 30.3725 39.4411 31.8224 38.9492 33.0983C38.4476 34.4333 37.6606 35.6427 36.6433 36.6422C35.6439 37.6595 34.4345 38.4464 33.0995 38.948C31.8255 39.442 30.3736 39.778 28.2457 39.878L26.8218 39.938L26.4338 39.95C25.4479 39.978 24.3059 39.992 22.056 39.996L20.5641 39.998H17.9462C16.4868 40.0031 15.0274 39.9878 13.5685 39.952L13.1805 39.94C12.7057 39.922 12.2311 39.9013 11.7565 39.878C9.62865 39.778 8.17673 39.442 6.90079 38.948C5.56652 38.4462 4.3578 37.6592 3.35897 36.6422C2.34091 35.6429 1.55328 34.4335 1.05108 33.0983C0.55711 31.8244 0.221126 30.3725 0.121131 28.2426L0.0611345 26.8186L0.0511352 26.4307C0.0142691 24.9724 -0.00239847 23.5136 0.00113754 22.0549V17.9431C-0.00439797 16.4844 0.0102695 15.0256 0.0451355 13.5673L0.0591347 13.1793C0.0751339 12.7294 0.0951328 12.2874 0.119132 11.7554C0.219127 9.62551 0.55511 8.17559 1.04908 6.89965C1.55245 5.56412 2.34147 4.35465 3.36097 3.35583C4.35922 2.33898 5.56723 1.55207 6.90079 1.04995C8.17673 0.555972 9.62665 0.219989 11.7565 0.119994C12.2885 0.095995 12.7325 0.0759961 13.1805 0.0599969L13.5685 0.0479974C15.0268 0.0124648 16.4855 -0.00286925 17.9442 0.00199975L22.056 0ZM20.0001 9.9995C17.3481 9.9995 14.8047 11.053 12.9294 12.9283C11.0541 14.8035 10.0006 17.347 10.0006 19.999C10.0006 22.651 11.0541 25.1944 12.9294 27.0697C14.8047 28.945 17.3481 29.9985 20.0001 29.9985C22.6522 29.9985 25.1956 28.945 27.0708 27.0697C28.9461 25.1944 29.9996 22.651 29.9996 19.999C29.9996 17.347 28.9461 14.8035 27.0708 12.9283C25.1956 11.053 22.6522 9.9995 20.0001 9.9995ZM20.0001 13.9993C20.788 13.9992 21.5682 14.1542 22.2962 14.4556C23.0242 14.757 23.6856 15.1988 24.2428 15.7559C24.8001 16.3129 25.2421 16.9742 25.5437 17.7021C25.8454 18.43 26.0007 19.2101 26.0008 19.998C26.001 20.7859 25.8459 21.5661 25.5445 22.2941C25.2431 23.022 24.8013 23.6835 24.2443 24.2407C23.6872 24.7979 23.0259 25.24 22.298 25.5416C21.5702 25.8432 20.79 25.9986 20.0021 25.9987C18.4109 25.9987 16.8849 25.3666 15.7597 24.2414C14.6345 23.1163 14.0024 21.5902 14.0024 19.999C14.0024 18.4078 14.6345 16.8817 15.7597 15.7566C16.8849 14.6314 18.4109 13.9993 20.0021 13.9993M30.5016 6.99965C29.8386 6.99965 29.2027 7.26303 28.7339 7.73184C28.2651 8.20066 28.0017 8.83651 28.0017 9.49952C28.0017 10.1625 28.2651 10.7984 28.7339 11.2672C29.2027 11.736 29.8386 11.9994 30.5016 11.9994C31.1646 11.9994 31.8005 11.736 32.2693 11.2672C32.7381 10.7984 33.0015 10.1625 33.0015 9.49952C33.0015 8.83651 32.7381 8.20066 32.2693 7.73184C31.8005 7.26303 31.1646 6.99965 30.5016 6.99965Z" fill="white"/>
</svg>
