<svg width="40" height="41" viewBox="0 0 40 41" fill="none" xmlns="http://www.w3.org/2000/svg">
<path d="M20 0.526855C8.95417 0.526855 0 9.48102 0 20.5269C0 31.5727 8.95417 40.5269 20 40.5269C31.0458 40.5269 40 31.5727 40 20.5269C40 9.48102 31.0458 0.526855 20 0.526855ZM15.1042 28.8164H11.0542V15.7831H15.1042V28.8164ZM13.0542 14.1831C11.775 14.1831 10.9479 13.2769 10.9479 12.156C10.9479 11.0123 11.8 10.1331 13.1062 10.1331C14.4125 10.1331 15.2125 11.0123 15.2375 12.156C15.2375 13.2769 14.4125 14.1831 13.0542 14.1831ZM29.8958 28.8164H25.8458V21.5935C25.8458 19.9123 25.2583 18.7706 23.7938 18.7706C22.675 18.7706 22.0104 19.5435 21.7167 20.2873C21.6083 20.5519 21.5812 20.9269 21.5812 21.2998V28.8144H17.5292V19.9394C17.5292 18.3123 17.4771 16.9519 17.4229 15.781H20.9417L21.1271 17.5914H21.2083C21.7417 16.7414 23.0479 15.4873 25.2333 15.4873C27.8979 15.4873 29.8958 17.2727 29.8958 21.1102V28.8164Z" fill="white"/>
</svg>
