<svg width="427" height="129" viewBox="0 0 427 129" fill="none" xmlns="http://www.w3.org/2000/svg">
<path d="M0 128H24.7652V113.307C16.1533 115.398 7.84927 118.24 0 121.783V128Z" fill="white"/>
<path d="M0 110.506C8.14299 108.593 16.4106 107.045 24.7652 105.868V28.705L0 8.47461V110.506Z" fill="white"/>
<path d="M31.4766 104.951C36.1324 104.371 41.135 103.852 46.3357 103.432V29.4669L31.4766 15.0537V104.951Z" fill="white"/>
<path d="M31.4766 128H46.3357V109.169C41.3826 109.849 36.4296 110.688 31.4766 111.748V128Z" fill="white"/>
<path d="M53.1745 127.999H69.3462V107.069C64.3932 107.309 58.8953 107.709 53.125 108.329L53.1745 127.999Z" fill="white"/>
<path d="M53.1745 102.991C58.4247 102.671 63.8731 102.551 69.3462 102.671V0L53.125 19.9905L53.1745 102.991Z" fill="white"/>
<path d="M76.1797 36.7031V102.672C82.4878 102.898 88.7731 103.432 95.0012 104.271V22.8896L76.1797 36.7031Z" fill="white"/>
<path d="M95.0012 107.289C88.7471 106.797 82.4592 106.644 76.1797 106.829V127.999H95.0012V107.289Z" fill="white"/>
<path d="M172.123 74.1006V127.422H161.74V111.504C161.74 103.143 161.96 94.1189 162.401 84.4313C160.827 91.2515 159.128 97.4753 157.304 103.103L149.488 127.422H140.899L132.819 103.605C130.787 97.3811 129.085 91.04 127.722 84.6122C128.15 95.1037 128.37 103.605 128.383 110.117V127.422H118V74.1006H133.612L141.163 97.2744C142.906 102.798 144.306 108.438 145.354 114.157C146.43 108.397 147.855 102.718 149.62 97.1538L156.813 74.1006H172.123Z" fill="white"/>
<path d="M201.346 108.49C200.672 108.933 199.949 109.284 199.194 109.535C197.606 109.95 195.999 110.279 194.38 110.52C192.617 110.696 190.894 111.185 189.283 111.967C188.558 112.376 187.961 113 187.562 113.763C187.163 114.527 186.981 115.396 187.036 116.268C187.001 117.029 187.132 117.789 187.421 118.487C187.709 119.184 188.146 119.801 188.698 120.287C189.826 121.185 191.218 121.627 192.624 121.534C193.952 121.578 195.272 121.311 196.493 120.752C197.713 120.193 198.802 119.355 199.684 118.298C200.438 117.459 200.96 116.416 201.195 115.283C201.315 114.485 201.372 113.679 201.365 112.871L201.346 108.49ZM212.295 127.322H202.12C201.743 126.106 201.521 124.842 201.459 123.564C199.875 125.182 198 126.442 195.946 127.267C193.892 128.093 191.703 128.467 189.509 128.367C186.297 128.579 183.114 127.599 180.505 125.594C179.267 124.526 178.28 123.165 177.625 121.619C176.969 120.072 176.662 118.385 176.729 116.69C176.617 114.508 177.175 112.347 178.319 110.534C179.464 108.721 181.132 107.354 183.072 106.64C186.136 105.588 189.303 104.913 192.511 104.631C195.138 104.448 197.722 103.838 200.175 102.822C200.589 102.5 200.913 102.064 201.112 101.561C201.312 101.059 201.379 100.508 201.308 99.9677C201.308 96.571 199.137 94.8626 194.776 94.8626C193.753 94.758 192.72 94.8829 191.745 95.229C190.769 95.5752 189.873 96.135 189.113 96.8725C188.322 97.9821 187.838 99.3047 187.716 100.691H178.277C178.321 98.8603 178.739 97.0616 179.502 95.4199C180.265 93.7783 181.354 92.3331 182.694 91.1846C185.526 88.7861 189.673 87.5869 195.135 87.5869C200.912 87.5869 205.178 88.8129 207.934 91.265C209.631 92.7009 210.735 94.7847 211.011 97.0735C211.145 98.4084 211.202 99.7509 211.181 101.093C211.181 101.596 211.181 104.188 211.181 108.851C211.181 113.514 211.181 116.127 211.181 116.891C211.117 119.358 211.263 121.827 211.615 124.267C211.809 125.303 212.106 126.313 212.502 127.282" fill="white"/>
<path d="M250.787 112.469C250.4 115.997 249.092 119.339 247.012 122.116C245.329 124.211 243.216 125.865 240.836 126.949C238.456 128.033 235.873 128.519 233.288 128.367C230.612 128.525 227.938 128.025 225.473 126.906C223.008 125.788 220.818 124.08 219.073 121.915C216.154 118.084 214.632 113.259 214.787 108.329C214.637 105.435 215.063 102.54 216.04 99.8342C217.016 97.1286 218.519 94.6739 220.451 92.6316C223.965 89.2088 228.604 87.3966 233.363 87.5868C239.517 87.5868 244.142 89.5967 247.276 93.7169C249.177 96.1187 250.354 99.0742 250.655 102.199H240.895C240.672 100.719 240.079 99.3301 239.178 98.1788C238.5 97.3363 237.652 96.6674 236.697 96.222C235.743 95.7765 234.707 95.5661 233.665 95.6062C232.279 95.5247 230.899 95.858 229.681 96.5684C228.463 97.2788 227.456 98.3379 226.775 99.626C225.444 102.179 224.792 105.069 224.887 107.987C224.773 110.913 225.427 113.815 226.775 116.368C227.437 117.609 228.407 118.631 229.58 119.323C230.752 120.014 232.081 120.348 233.42 120.287C237.818 120.287 240.386 117.654 241.16 112.389L250.787 112.469Z" fill="white"/>
<path d="M294.453 74V83.8685H267.816V95.2041H292.244V104.389H267.816V117.433H294.963V127.322H256.867V74H294.453Z" fill="white"/>
<path d="M353.69 88.6318L342.175 127.302H331.83L327.601 110.419C326.827 107.324 326.053 103.404 325.336 98.6611C324.562 103.424 323.825 107.324 323.089 110.379L319.049 127.302H308.704L297.227 88.6318H307.76L311.536 103.304C312.492 106.935 313.48 111.665 314.5 117.494C315.33 112.208 316.274 107.324 317.331 102.882L320.711 88.6318H330.357L334.133 104.57C335.02 108.268 335.832 112.61 336.587 117.453C337.531 111.987 338.386 107.752 339.154 104.751L343.345 88.672L353.69 88.6318Z" fill="white"/>
<path d="M377.494 108.489C376.814 108.933 376.085 109.284 375.323 109.535C373.742 109.953 372.142 110.282 370.528 110.519C368.76 110.7 367.032 111.189 365.412 111.967C364.69 112.377 364.095 113.002 363.699 113.765C363.304 114.529 363.125 115.398 363.185 116.268C363.145 117.028 363.273 117.787 363.559 118.485C363.844 119.183 364.278 119.8 364.827 120.287C365.959 121.179 367.348 121.62 368.754 121.534C370.076 121.583 371.392 121.322 372.608 120.77C373.825 120.218 374.913 119.387 375.795 118.338C376.555 117.504 377.079 116.459 377.305 115.323C377.442 114.528 377.505 113.72 377.494 112.911V108.489ZM388.462 127.322H378.268C377.882 126.109 377.66 124.843 377.607 123.563C376.021 125.183 374.142 126.444 372.085 127.27C370.028 128.095 367.835 128.469 365.639 128.367C362.432 128.58 359.256 127.599 356.653 125.593C355.412 124.529 354.423 123.168 353.767 121.621C353.111 120.075 352.806 118.385 352.877 116.69C352.765 114.508 353.323 112.347 354.468 110.534C355.612 108.721 357.281 107.354 359.22 106.64C362.284 105.588 365.451 104.913 368.659 104.631C371.292 104.447 373.883 103.837 376.343 102.822C376.756 102.5 377.08 102.064 377.28 101.561C377.479 101.059 377.547 100.508 377.475 99.9676C377.475 96.571 375.304 94.8626 370.944 94.8626C369.92 94.7554 368.887 94.8791 367.911 95.2254C366.935 95.5716 366.039 96.1329 365.28 96.8724C364.482 97.9777 363.998 99.3026 363.883 100.691H354.444C354.508 98.8884 354.931 97.1208 355.686 95.5058C356.442 93.8909 357.511 92.4657 358.824 91.3252C361.656 88.9335 365.809 87.7275 371.246 87.7275C377.022 87.7275 381.295 88.9536 384.064 91.4056C385.728 92.8596 386.802 94.9394 387.065 97.2141C387.217 98.5476 387.28 99.8909 387.254 101.234C387.254 101.736 387.254 104.329 387.141 108.992C387.027 113.655 387.141 116.268 387.141 117.031C387.081 119.5 387.233 121.969 387.594 124.408C387.781 125.443 388.072 126.454 388.462 127.422" fill="white"/>
<path d="M402.57 88.6318V94.0183C403.464 92.648 404.553 91.4342 405.798 90.4206C408.393 88.4493 411.521 87.4332 414.708 87.5264C417.461 87.4521 420.167 88.2953 422.448 89.9382C423.613 90.8457 424.592 91.9962 425.325 93.3196C426.059 94.6431 426.532 96.1117 426.714 97.636C426.932 99.4083 427.027 101.195 426.998 102.982V127.322H417.162V105.093C417.243 103.233 417.032 101.372 416.539 99.5856C416.16 98.5445 415.444 97.682 414.519 97.1537C413.414 96.4923 412.162 96.1591 410.895 96.1889C409.894 96.1615 408.897 96.3465 407.964 96.7329C407.031 97.1194 406.179 97.6997 405.458 98.44C404.337 99.6185 403.613 101.159 403.4 102.821C403.168 104.309 403.067 105.816 403.098 107.324V127.422H393.188V88.6318H402.57Z" fill="white"/>
</svg>
