<svg width="207" height="41" viewBox="0 0 207 41" fill="none" xmlns="http://www.w3.org/2000/svg">
<path d="M25.5779 11.0746C30.0933 11.0746 32.871 14.0986 32.871 18.929V31.0248H29.9485V19.6359C29.9485 15.8527 28.0396 13.732 24.8538 13.732C21.8918 13.732 19.4168 15.9313 19.4168 19.7799V31.051H16.5206V19.5443C16.5206 15.8789 14.5854 13.7189 11.4654 13.7189C8.34541 13.7189 6.00211 16.3371 6.00211 19.8846V31.0379H3.06641V11.4935H6.00211V14.7793C6.62598 13.6506 7.54496 12.7105 8.6619 12.0583C9.77884 11.4062 11.0522 11.0663 12.3474 11.0746C13.6718 11.0329 14.9787 11.384 16.1017 12.0834C17.2247 12.7828 18.1129 13.7987 18.6533 15.0018C19.3536 13.7954 20.364 12.796 21.5808 12.1059C22.7976 11.4158 24.1771 11.0598 25.5779 11.0746Z" fill="white"/>
<path d="M48.2211 31.68C46.5492 35.725 44.6535 37.1911 41.6388 37.1911C40.1839 37.2065 38.7471 36.8696 37.4525 36.2093L38.4398 33.9054C39.385 34.4109 40.4477 34.6592 41.5203 34.6254C43.2712 34.6254 44.3771 33.7221 45.5487 30.96L36.6758 11.4941H39.9011L47.0495 27.7789L53.3553 11.4941H56.4753L48.2211 31.68Z" fill="white"/>
<path d="M70.1928 23.1841H65.3219V31.0385H61.0039V6.61133H70.6799C76.4065 6.61133 80.0136 9.81854 80.0136 14.8061C80.0136 20.3173 75.6034 23.1841 70.1928 23.1841ZM70.3376 10.4731H65.3219V19.27H70.3376C73.6024 19.27 75.6034 17.4897 75.6034 14.8715C75.6298 12.0178 73.5629 10.4731 70.3376 10.4731Z" fill="white"/>
<path d="M96.1025 31.4181C94.42 31.4625 92.7458 31.1677 91.181 30.5514C89.6161 29.9351 88.1929 29.0101 86.9973 27.8322C85.8016 26.6542 84.8581 25.2477 84.2239 23.6974C83.5896 22.1472 83.2775 20.4852 83.3065 18.8118C83.4044 15.4953 84.796 12.3467 87.1868 10.0321C89.5775 7.71761 92.78 6.4187 96.1167 6.4102C99.4534 6.4017 102.663 7.68427 105.065 9.98658C107.468 12.2889 108.876 15.4303 108.991 18.7463C109.011 20.4281 108.69 22.0966 108.047 23.6524C107.405 25.2083 106.454 26.6195 105.251 27.802C104.048 28.9846 102.618 29.9142 101.047 30.5354C99.4749 31.1567 97.7935 31.4569 96.1025 31.4181ZM96.1025 10.1327C94.9798 10.1349 93.8692 10.3635 92.8379 10.8045C91.8065 11.2456 90.8757 11.8899 90.1018 12.6987C89.3278 13.5074 88.7268 14.4638 88.335 15.5099C87.9431 16.5561 87.7686 17.6705 87.822 18.7856C87.7777 19.9119 87.9625 21.0356 88.3652 22.0893C88.7679 23.1429 89.3803 24.105 90.1657 24.9178C90.9511 25.7305 91.8934 26.3774 92.9361 26.8195C93.9789 27.2616 95.1006 27.49 96.2342 27.4909C97.3569 27.4886 98.4674 27.2601 99.4988 26.819C100.53 26.378 101.461 25.7337 102.235 24.9249C103.009 24.1162 103.61 23.1598 104.002 22.1136C104.394 21.0674 104.568 19.9531 104.515 18.838C104.559 17.7116 104.374 16.588 103.972 15.5343C103.569 14.4806 102.956 13.5186 102.171 12.7058C101.386 11.893 100.443 11.2462 99.4006 10.8041C98.3578 10.3619 97.2361 10.1336 96.1025 10.1327Z" fill="white"/>
<path d="M130.014 31.0385L123.985 22.5165H118.588V31.0385H114.27V6.61133H125.209C130.857 6.61133 134.28 9.56982 134.28 14.4003C134.343 16.1265 133.79 17.8194 132.717 19.1782C131.645 20.5371 130.123 21.474 128.421 21.8227L135.004 31.0778L130.014 31.0385ZM124.867 10.4731H118.588V18.7202H124.893C127.987 18.7202 129.949 17.1101 129.949 14.5966C129.949 12.0832 128.053 10.4731 124.867 10.4731Z" fill="white"/>
<path d="M149.917 31.0379H145.559V10.5903H137.766V6.66309H157.697V10.5903H149.917V31.0379Z" fill="white"/>
<path d="M182.618 31.0378H178.05L175.562 25.1339H163.951L161.423 31.0378H157L167.808 6.44043H171.758L182.618 31.0378ZM169.73 11.5589L165.531 21.3376H173.982L169.73 11.5589Z" fill="white"/>
<path d="M186.82 6.61133H191.138V27.1244H204.053V31.0516H186.82V6.61133Z" fill="white"/>
</svg>
