<svg width="40" height="41" viewBox="0 0 40 41" fill="none" xmlns="http://www.w3.org/2000/svg">
<path d="M20 0.526855C16.0444 0.526855 12.1776 1.69983 8.8886 3.89746C5.59962 6.09509 3.03617 9.21866 1.52242 12.8732C0.00866568 16.5277 -0.387401 20.549 0.384303 24.4287C1.15601 28.3083 3.06082 31.8719 5.85787 34.669C8.65492 37.466 12.2186 39.3708 16.0982 40.1426C19.9778 40.9143 23.9992 40.5182 27.6537 39.0044C31.3082 37.4907 34.4318 34.9272 36.6294 31.6383C38.827 28.3493 40 24.4825 40 20.5269C39.9947 15.2241 37.8859 10.1401 34.1363 6.39057C30.3867 2.64099 25.3027 0.53215 20 0.526855ZM31.878 15.9529V17.2449C31.878 17.3437 31.8583 17.4416 31.8198 17.5327C31.7814 17.6238 31.7251 17.7063 31.6542 17.7753C31.5834 17.8443 31.4994 17.8984 31.4073 17.9344C31.3152 17.9704 31.2169 17.9875 31.118 17.9849C29.0063 17.8357 26.9861 17.0646 25.312 15.7689V25.2249C25.3115 26.2714 25.1026 27.3074 24.6974 28.2723C24.2922 29.2372 23.6989 30.1117 22.952 30.8449C22.199 31.5971 21.3035 32.1916 20.3179 32.5934C19.3322 32.9952 18.2763 33.1963 17.212 33.1848C15.0717 33.1817 13.0175 32.342 11.488 30.8449C10.5148 29.8637 9.81379 28.646 9.454 27.3117C9.0942 25.9773 9.088 24.5723 9.43601 23.2349C9.75401 21.9509 10.396 20.7709 11.302 19.8089C11.9777 18.983 12.8294 18.3186 13.7948 17.8643C14.7602 17.41 15.815 17.1771 16.882 17.1829H18.522V20.5889C18.5227 20.6878 18.5024 20.7857 18.4623 20.8761C18.4221 20.9666 18.3632 21.0474 18.2894 21.1133C18.2156 21.1791 18.1286 21.2285 18.0342 21.2581C17.9398 21.2877 17.8402 21.2968 17.742 21.2849C16.7898 20.9988 15.7637 21.0937 14.8801 21.5495C13.9964 22.0052 13.3243 22.7863 13.0053 23.728C12.6863 24.6696 12.7454 25.6984 13.1701 26.5974C13.5948 27.4963 14.352 28.1953 15.282 28.5469C15.822 28.8569 16.426 29.0389 17.046 29.0809C17.526 29.1009 18.006 29.0408 18.462 28.8968C19.2233 28.64 19.8854 28.1521 20.3561 27.501C20.8269 26.85 21.0827 26.0682 21.088 25.2649V8.03485C21.088 7.84424 21.1636 7.66141 21.2982 7.52644C21.4328 7.39147 21.6154 7.31538 21.806 7.31485H24.636C24.8199 7.31508 24.9967 7.38565 25.1302 7.51209C25.2637 7.63853 25.3438 7.81126 25.354 7.99485C25.4572 8.87731 25.7374 9.72986 26.178 10.5014C26.6186 11.2729 27.2104 11.9476 27.918 12.4849C28.8742 13.2026 30.0098 13.6428 31.2 13.7569C31.3783 13.7721 31.545 13.8514 31.6693 13.9801C31.7935 14.1088 31.867 14.2782 31.876 14.4569L31.878 15.9529Z" fill="white"/>
</svg>
