<svg width="40" height="41" viewBox="0 0 40 41" fill="none" xmlns="http://www.w3.org/2000/svg">
<path fill-rule="evenodd" clip-rule="evenodd" d="M20 0.898926C21.71 0.898926 23.464 0.942926 25.164 1.01493L27.172 1.11093L29.094 1.22493L30.894 1.34693L32.538 1.47493C34.3224 1.61071 36.0016 2.37179 37.2799 3.62413C38.5582 4.87646 39.3536 6.53972 39.526 8.32093L39.606 9.17093L39.756 10.9909C39.896 12.8769 40 14.9329 40 16.8989C40 18.8649 39.896 20.9209 39.756 22.8069L39.606 24.6269L39.526 25.4769C39.3536 27.2584 38.5579 28.922 37.2792 30.1743C36.0004 31.4267 34.3207 32.1876 32.536 32.3229L30.896 32.4489L29.096 32.5729L27.172 32.6869L25.164 32.7829C23.4437 32.8574 21.722 32.8961 20 32.8989C18.278 32.8961 16.5563 32.8574 14.836 32.7829L12.828 32.6869L10.906 32.5729L9.106 32.4489L7.462 32.3229C5.67763 32.1871 3.9984 31.4261 2.72009 30.1737C1.44178 28.9214 0.646382 27.2581 0.474 25.4769L0.394 24.6269L0.244 22.8069C0.0916655 20.8412 0.0102793 18.8706 0 16.8989C0 14.9329 0.104 12.8769 0.244 10.9909L0.394 9.17093L0.474 8.32093C0.646315 6.54003 1.44142 4.87703 2.71933 3.62474C3.99723 2.37244 5.67598 1.61116 7.46 1.47493L9.102 1.34693L10.902 1.22493L12.826 1.11093L14.834 1.01493C16.555 0.94038 18.2774 0.901705 20 0.898926ZM16 12.0489V21.7489C16 22.6729 17 23.2489 17.8 22.7889L26.2 17.9389C26.3828 17.8337 26.5346 17.6822 26.6402 17.4996C26.7458 17.317 26.8013 17.1098 26.8013 16.8989C26.8013 16.688 26.7458 16.4808 26.6402 16.2983C26.5346 16.1157 26.3828 15.9641 26.2 15.8589L17.8 11.0109C17.6175 10.9056 17.4105 10.8501 17.1998 10.8502C16.9891 10.8502 16.7821 10.9057 16.5997 11.0111C16.4172 11.1165 16.2657 11.2681 16.1605 11.4507C16.0552 11.6332 15.9999 11.8402 16 12.0509V12.0489Z" fill="white"/>
</svg>
